<svg xmlns="http://www.w3.org/2000/svg" viewBox="0 0 171.89 217.96"><defs><style>.a{fill:#89181a;}.b{fill:#231f20;}</style></defs><title>Asset 2</title><path class="a" d="M152.22,125a20.36,20.36,0,0,0,2.61,1.48,3.44,3.44,0,0,0,4.3-.91c.17-.19.33-.38.49-.58a3.4,3.4,0,0,0,.41-3.78,6.13,6.13,0,0,0-3.56-3.35,2.49,2.49,0,0,0-2.79.5c-.77.76-1.43,1.63-2.14,2.45-.18.73-.35,1.46-.52,2.19a6.43,6.43,0,0,0-.08.75,8.82,8.82,0,0,0,1.28,1.25"/><path class="a" d="M81.21,143.56c-1.65,2.56-10.72,4.31-13.46,5.26S54.22,154,53.07,151.23C52,148.71,59.45,134.9,60.44,132c2.58-7.57,4.88-15.19,7.07-22.86C68,107.5,72,95.37,73,92.88c.21,0,.43.05.64.06.79,1.41.4,4,1.91,5.55,1.13,11.11.74,21,3.6,31.93.9,3.46,3.83,10.36,2,13.14m88.37,27.16c2.8-4.74,2.35-11.56-3.6-6.07-6.23,5.75-9.23,3.33-15.24-2.25-2.76-2.56-4.44-3.92-8.29-2.69-3,1-2.94,2.94-5,1.4-3.45-2.64-2.07-17.58-2-21.12.44-14.22,4.61-28.24,6.34-42.34.41-3.4,2.35-12.77-4.61-10.81-3.46,1-7.41,13.33-9.21,16.63-4.47,8.2-10.59,16.53-17.33,22.56-3.59,3.21-9.48,6.05-13.7,8.52-7.66,4.48-9.68,6-11.72-3.19-5.62-25.3-6.26-50.55-3.73-76.13,1.18-12,3.72-24,5.84-35.88.77-4.29,2-9.75,1.39-14.11-.72-5.4-5-7.6-8.09-1.85-2.64,4.95-2.15,13.88-3,19.44-1,6.73-1.52,13.36-2.25,20.11C74.1,55.7,71.73,67.42,69.32,80c-1.92,10-5.08,20.53-8.3,31.28-1.88,6.28-3.88,12.45-6.18,18.66-1.47,4-4.3,15.25-8.24,17.13-.89,8.19-5.5,8-12.45,8.6-8.06.73-17.57.78-23.94-5-8.13-7.39,4.57-9.6,10.49-9.43a37,37,0,0,1,12.9,2.56c1.64.66,7.24,4.82,8.85,3.6,4.94-3.77-10.19-9.52-12.17-10a66.74,66.74,0,0,0-14.85-1.56c-12.68-.06-21.16,10.34-10,20.42,4.88,4.42,10.91,6.47,17.41,7a45.4,45.4,0,0,0,9.53-.26c1.2-.13,4.2-1.52,5.31-.82,6.54,4.16-19.89,24.33-9.66,29,6.64,3,17.51-28,22.78-30.79,4.68-2.43,10.9-3.08,15.87-4.87,3.78-1.37,11.61-6,15.26-5.31,6.7,1.36,9.1,21.2,10.37,27.65a35.39,35.39,0,0,1,.79,7.13c0,5.23.77,5.15-3,4.78-1.6-.15-9.68-7.72-10.72-6.2-1.39,2,22.67,29.52,20.35,1.13a102,102,0,0,0-5.41-24.24c-2.65-7.86-6.73-12.59,1-17.37,12.25-7.56,23.29-15.13,31.7-27,6-8.42,4.28-1.7,3.22,4.34-1.14,6.49-2.8,12.75-3.09,19.46a77.55,77.55,0,0,0,2.45,24.47c.61,2.16,1.58,6.73,4,7.68,3.52,1.39,5.26-2.05,8.06-2.62,4.71-.95,4.53,2.05,8.73,4.84a13.39,13.39,0,0,0,5,2c5.69,1.28,11-.3,14.13-5.61"/><path class="b" d="M9.32,210.65c2.66-.7,5.32.08,8,0,3.95-.07,7.79.56,11.64,0,.35-.05.7-.36,1-.43,1.88-.4,3.7.14,5.6-.07,2.79-.3,5.67-1.14,8.68-1.51a15.4,15.4,0,0,1,2.93-.34c.19,0,.46.35.65.34s.59-.44.81-.44c.41,0,.79.35,1.21.37,1.13.07,2.19-.57,3.39-.64.93-.05,1.85.17,2.79.12,2.63-.11,5.62-.52,8.21-.74.78-.07,1.65.34,2.45.26s1.53-.46,2.48-.52c3.58-.21,7.34.51,10.42-.17a6.75,6.75,0,0,1,4,.33c2.24-.5,4.41.1,6.6.13.5,0,1.06-.41,1.58-.4.36,0,.66.32,1,.36,1.34.15,2.5-.53,4.16-.3a7.83,7.83,0,0,0,1,.21c.29-.05.54-.44.8-.44s.44.32.66.34c.82.08,1.67-.23,2.47-.21,1.73.05,3.52.49,5.24.39a25.75,25.75,0,0,0,4.3-1.07c3.33.72,6.61-.66,9.72.58a83.37,83.37,0,0,1,9.53-.37c.69,0,1.3.48,2,.56,2.34.27,4.85-.89,7.37.32,2.71-.65,6.47-.18,9.74,0,2.71.11,5.28-.64,7.61.18,1.12-1.08,2.66,0,4.37-.13,2.81-.15,5.32-2.19,8-1.06a3.93,3.93,0,0,1,2.19,3.71c0,2.45-1.62,4.79-3.25,5.22a12.82,12.82,0,0,0-2.87-.92c-1.43-.17-3,.26-4.48.12-.25,0-.52-.35-.77-.35-.46,0-.92.42-1.36.42-1.12,0-2.33-.65-3.56-.63s-3.35.73-4.69-.21c-4.28.62-9.09.08-14.21-.14-2.21-.1-4.68.51-7.06.16-.6-.09-1.16-.53-1.76-.55a27.51,27.51,0,0,0-6.53.66c-1.35-.71-2.82-.22-4.24-.34a17.73,17.73,0,0,0-2.77-.44c-.45,0-.84.36-1.25.42-.56.08-1.26-.33-1.79-.23-.34.06-.59.4-.91.43-.57,0-1.08-.24-1.67-.23-1.09,0-2.23.45-3.38.48-.92,0-1.86-.26-2.79-.28-.38,0-.82.29-1.24.26s-.57-.37-.88-.35c-1.42.08-2.79.78-4.17.76-.33,0-.67-.32-1-.36a16.58,16.58,0,0,0-2.47.37c-3.44.11-6.81-.28-10.19-.13-3.67.16-7.63.79-11.18-.33-6.25,1.79-12.66.18-19.08,1.21a16,16,0,0,1-2.49.52c-.93,0-2,.2-2.91.19-1.47,0-3-.72-4.47-.35-.89.23-1.66.82-2.5,1s-1.63-.08-2.47,0c-2.09.33-3.69,1-5.87,1.16-2.34.22-5.22-.08-8.17,0-.63,0-1.29.4-1.92.39-1.16,0-2.27-.48-3.45-.47-1.4,0-3.06.22-4.71.27s-3-.55-4.78-.84c-.92,0-2.07.74-2.95.82-1.82.17-5.05-1.21-5.49-2.45a4.37,4.37,0,0,1,1.77-4.64,5.58,5.58,0,0,1,2.59-.36c.45.05.85.49,1.33.53,1.48.1,2.76-1.09,3.47-.17"/></svg>